<svg xmlns="http://www.w3.org/2000/svg" xmlns:xlink="http://www.w3.org/1999/xlink" width="32" height="31.598" viewBox="0 0 32 31.598">
  <defs>
    <linearGradient id="linear-gradient" x1="-0.036" y1="0.28" x2="0.829" y2="0.635" gradientUnits="objectBoundingBox">
      <stop offset="0" stop-color="#0ef"/>
      <stop offset="1" stop-color="#00c"/>
    </linearGradient>
  </defs>
  <path id="logo-mark" d="M156.673,134.777a15.962,15.962,0,0,0-5.758-5.812,16.141,16.141,0,0,0-17.853,1,15.932,15.932,0,0,0-3.485,3.6,15.587,15.587,0,0,0-2.693,6.864c-.04.294-.071.585-.093.865-.033.415-.051.837-.051,1.254a15.706,15.706,0,0,0,5.573,11.983c.349.3.705.573,1.061.827a16.063,16.063,0,0,0,9.366,2.989,16.412,16.412,0,0,0,2.047-.128,16.014,16.014,0,0,0,11.678-7.548,15.638,15.638,0,0,0,2.273-7.9c0-.073,0-.147,0-.219a15.643,15.643,0,0,0-2.068-7.772Zm-18.314,20.6,0,0a11.181,11.181,0,0,1-3.88-10.065,11.059,11.059,0,0,1,.351-1.642,11.492,11.492,0,0,1,10.99-8.13.536.536,0,0,0,.228-1.02,12.609,12.609,0,0,0-15.494,3.814,12.254,12.254,0,0,0-1.434,2.467c0-.023.005-.045.009-.068a13.266,13.266,0,0,1,.422-1.971,13.82,13.82,0,0,1,25.165-2.861,13.377,13.377,0,0,1,1.768,6.647c0,.061,0,.122,0,.185a13.378,13.378,0,0,1-1.943,6.764,13.67,13.67,0,0,1-10.032,6.479,14.046,14.046,0,0,1-1.762.111,13.872,13.872,0,0,1-4.38-.7l0,0Z" transform="translate(-126.74 -126.75)" fill="url(#linear-gradient)"/>
</svg>
