<svg id="logo" xmlns="http://www.w3.org/2000/svg" width="171.332" height="60.361" viewBox="0 0 171.332 60.361">
  <g id="Group_3" data-name="Group 3" transform="translate(76.432 12.072)">
    <path id="Path_1" data-name="Path 1" d="M944.265,221.311h-2.578l5.768-15.3h2.558l5.787,15.3h-2.568l-1.255-3.593h-6.458l-1.255,3.593Zm6.946-5.807-2.453-7.109-2.473,7.109Z" transform="translate(-941.687 -205.617)" fill="#fff"/>
    <path id="Path_2" data-name="Path 2" d="M978.07,213.287a5.621,5.621,0,0,0,1.552,4.274,6.3,6.3,0,0,0,4.512,1.475,9.036,9.036,0,0,0,3.354-.565v2.261a9.46,9.46,0,0,1-3.641.623,10.235,10.235,0,0,1-3.679-.6,6.325,6.325,0,0,1-2.548-1.691,7.117,7.117,0,0,1-1.443-2.539,10.364,10.364,0,0,1-.474-3.239,11.162,11.162,0,0,1,.292-2.625,7.353,7.353,0,0,1,.929-2.218,6.413,6.413,0,0,1,1.581-1.72,7.072,7.072,0,0,1,2.3-1.1,10.917,10.917,0,0,1,3.042-.392,8.793,8.793,0,0,1,3.641.681v2.242a7.467,7.467,0,0,0-1.586-.446,10.1,10.1,0,0,0-1.767-.167,6.271,6.271,0,0,0-4.507,1.489,5.618,5.618,0,0,0-1.557,4.259Z" transform="translate(-958.552 -205.23)" fill="#fff"/>
    <path id="Path_3" data-name="Path 3" d="M1009.864,213.287a5.621,5.621,0,0,0,1.552,4.274,6.3,6.3,0,0,0,4.512,1.475,9.037,9.037,0,0,0,3.354-.565v2.261a9.459,9.459,0,0,1-3.641.623,10.237,10.237,0,0,1-3.68-.6,6.325,6.325,0,0,1-2.548-1.691,7.125,7.125,0,0,1-1.443-2.539,10.363,10.363,0,0,1-.474-3.239,11.162,11.162,0,0,1,.292-2.625,7.364,7.364,0,0,1,.929-2.218,6.406,6.406,0,0,1,1.582-1.72,7.063,7.063,0,0,1,2.3-1.1,10.92,10.92,0,0,1,3.042-.392,8.793,8.793,0,0,1,3.641.681v2.242a7.461,7.461,0,0,0-1.586-.446,10.108,10.108,0,0,0-1.768-.167,6.271,6.271,0,0,0-4.507,1.489,5.617,5.617,0,0,0-1.558,4.259Z" transform="translate(-974.315 -205.23)" fill="#fff"/>
    <path id="Path_4" data-name="Path 4" d="M1050.676,219.251v2.06h-10.262v-15.3h10.262v2.041h-7.953v4.571h7.3v2.041h-7.3v4.59h7.953Z" transform="translate(-990.634 -205.617)" fill="#fff"/>
    <path id="Path_5" data-name="Path 5" d="M1082.156,216.624a4.107,4.107,0,0,1-1.658,3.5,7.335,7.335,0,0,1-4.484,1.236,16.771,16.771,0,0,1-2.788-.211,11.215,11.215,0,0,1-1.906-.45,14.631,14.631,0,0,1-1.409-.613l-.019-2.472a9.657,9.657,0,0,0,2.492,1.063,11.592,11.592,0,0,0,3.315.47,5.1,5.1,0,0,0,2.86-.68,2.042,2.042,0,0,0,1.01-1.753,2.094,2.094,0,0,0-.11-.7,1.333,1.333,0,0,0-.37-.541,3.2,3.2,0,0,0-.555-.407,4.192,4.192,0,0,0-.805-.336c-.338-.108-.662-.2-.968-.277s-.7-.173-1.178-.287l-.374-.086a9.7,9.7,0,0,1-3.986-1.74,3.291,3.291,0,0,1-1.217-2.572,3.963,3.963,0,0,1,1.548-3.359,7.425,7.425,0,0,1,4.537-1.173,14.847,14.847,0,0,1,1.744.1q.844.1,1.36.206a8.249,8.249,0,0,1,1.1.312q.585.206.757.282t.536.249v2.3a10.081,10.081,0,0,0-2.4-.953,10.822,10.822,0,0,0-2.788-.36q-3.747,0-3.746,2.4a1.362,1.362,0,0,0,.11.55,1.776,1.776,0,0,0,.268.441,1.715,1.715,0,0,0,.46.36,5.6,5.6,0,0,0,.57.287,6.842,6.842,0,0,0,.714.249q.445.134.771.216l.867.216c.361.089.657.166.886.229a10.726,10.726,0,0,1,2.894,1.063,3.965,3.965,0,0,1,1.519,1.409,3.7,3.7,0,0,1,.436,1.839Z" transform="translate(-1005.249 -205.232)" fill="#fff"/>
    <path id="Path_6" data-name="Path 6" d="M1114.994,216.624a4.108,4.108,0,0,1-1.657,3.5,7.337,7.337,0,0,1-4.485,1.236,16.769,16.769,0,0,1-2.788-.211,11.211,11.211,0,0,1-1.906-.45,14.631,14.631,0,0,1-1.409-.613l-.019-2.472a9.655,9.655,0,0,0,2.492,1.063,11.592,11.592,0,0,0,3.315.47,5.1,5.1,0,0,0,2.86-.68,2.043,2.043,0,0,0,1.01-1.753,2.09,2.09,0,0,0-.11-.7,1.33,1.33,0,0,0-.37-.541,3.208,3.208,0,0,0-.555-.407,4.2,4.2,0,0,0-.805-.336c-.338-.108-.661-.2-.968-.277s-.7-.173-1.178-.287l-.374-.086a9.7,9.7,0,0,1-3.986-1.74,3.291,3.291,0,0,1-1.217-2.572,3.963,3.963,0,0,1,1.547-3.359,7.425,7.425,0,0,1,4.537-1.173,14.835,14.835,0,0,1,1.744.1q.844.1,1.36.206a8.26,8.26,0,0,1,1.1.312q.585.206.757.282t.536.249v2.3a10.081,10.081,0,0,0-2.4-.953,10.823,10.823,0,0,0-2.788-.36q-3.747,0-3.746,2.4a1.362,1.362,0,0,0,.11.55,1.78,1.78,0,0,0,.268.441,1.726,1.726,0,0,0,.46.36,5.576,5.576,0,0,0,.57.287,6.842,6.842,0,0,0,.714.249q.445.134.771.216l.867.216c.361.089.657.166.886.229a10.724,10.724,0,0,1,2.893,1.063,3.965,3.965,0,0,1,1.519,1.409,3.7,3.7,0,0,1,.436,1.839Z" transform="translate(-1021.529 -205.232)" fill="#fff"/>
    <path id="Path_7" data-name="Path 7" d="M944.207,245.853l3.392,12.159,3.315-12.159h2.194l3.315,12.159,3.4-12.159h2.51l-4.646,15.3h-2.482l-3.191-11.44-3.2,11.44h-2.473l-4.656-15.3Z" transform="translate(-941.687 -225.37)" fill="#fff"/>
    <path id="Path_8" data-name="Path 8" d="M999.982,261.2a10.164,10.164,0,0,1-2.242-.23,6.805,6.805,0,0,1-1.753-.633,5.251,5.251,0,0,1-1.3-1,5.905,5.905,0,0,1-.929-1.27,7.225,7.225,0,0,1-.594-1.509,10.55,10.55,0,0,1-.321-1.662,16.265,16.265,0,0,1-.091-1.767,16.57,16.57,0,0,1,.091-1.782,10.554,10.554,0,0,1,.321-1.667,7.092,7.092,0,0,1,.594-1.5,5.891,5.891,0,0,1,.929-1.261,5.305,5.305,0,0,1,1.307-.991,6.743,6.743,0,0,1,1.753-.627,10.326,10.326,0,0,1,2.237-.226,9.219,9.219,0,0,1,2.984.441,5.823,5.823,0,0,1,2.083,1.168,5.692,5.692,0,0,1,1.3,1.791,8.231,8.231,0,0,1,.689,2.185,15.093,15.093,0,0,1,.187,2.472,14.879,14.879,0,0,1-.187,2.458,8.373,8.373,0,0,1-.689,2.185,5.752,5.752,0,0,1-1.3,1.8,5.856,5.856,0,0,1-2.083,1.178,9.129,9.129,0,0,1-2.984.446Zm-1.595-2.361a6.911,6.911,0,0,0,3.194,0,4.516,4.516,0,0,0,1.222-.494,3.35,3.35,0,0,0,.876-.771,4.562,4.562,0,0,0,.6-.959,5.585,5.585,0,0,0,.359-1.112,9.436,9.436,0,0,0,.182-1.169q.048-.551.048-1.2t-.048-1.2a9.414,9.414,0,0,0-.182-1.168,5.427,5.427,0,0,0-.359-1.112,4.448,4.448,0,0,0-.6-.954,3.4,3.4,0,0,0-.876-.766,4.532,4.532,0,0,0-1.222-.494,6.931,6.931,0,0,0-3.2,0,4.5,4.5,0,0,0-1.222.494,3.385,3.385,0,0,0-.876.766,4.4,4.4,0,0,0-.6.954,5.471,5.471,0,0,0-.359,1.112,9.419,9.419,0,0,0-.182,1.168q-.049.551-.048,1.2c0,.435.016.829.048,1.2a8.492,8.492,0,0,0,.187,1.173,5.919,5.919,0,0,0,.36,1.107,4.326,4.326,0,0,0,.6.959,3.419,3.419,0,0,0,.881.771,4.568,4.568,0,0,0,1.217.494Z" transform="translate(-967.003 -224.984)" fill="#fff"/>
    <path id="Path_9" data-name="Path 9" d="M1042.945,256.469l3.631,4.685h-2.73l-3.392-4.322h-3.612v4.322h-2.309v-15.3H1040q3.2,0,4.661,1.337a5.586,5.586,0,0,1,1.461,4.307,5.988,5.988,0,0,1-.781,3.272,4.155,4.155,0,0,1-2.4,1.7Zm-3.115-8.537h-2.989v6.946h2.989a4.614,4.614,0,0,0,3.008-.791,3.207,3.207,0,0,0,.93-2.573,3.555,3.555,0,0,0-.92-2.76,4.476,4.476,0,0,0-3.018-.824Z" transform="translate(-987.718 -225.37)" fill="#fff"/>
    <path id="Path_10" data-name="Path 10" d="M1081.135,259.017v2.137h-10.061v-15.3h2.309v13.164Z" transform="translate(-1005.835 -225.37)" fill="#fff"/>
    <path id="Path_11" data-name="Path 11" d="M1110.065,261.154H1104.5v-15.3h5.567a11.053,11.053,0,0,1,2.251.211,7.145,7.145,0,0,1,1.758.584,5.076,5.076,0,0,1,1.307.934,5.612,5.612,0,0,1,.929,1.2,6.368,6.368,0,0,1,.589,1.428,9.921,9.921,0,0,1,.317,1.591,15.409,15.409,0,0,1,.09,1.72,16.306,16.306,0,0,1-.086,1.725,10.036,10.036,0,0,1-.307,1.591,6.342,6.342,0,0,1-.574,1.423,5.374,5.374,0,0,1-.92,1.183,5.054,5.054,0,0,1-1.307.925,7.219,7.219,0,0,1-1.767.579,11.375,11.375,0,0,1-2.28.211Zm.038-13.127h-3.3v10.952h3.3a7.253,7.253,0,0,0,1.6-.163,4.776,4.776,0,0,0,1.222-.436,3.186,3.186,0,0,0,.876-.694,4.055,4.055,0,0,0,.6-.872,4.762,4.762,0,0,0,.36-1.025,8.116,8.116,0,0,0,.182-1.107c.031-.355.048-.742.048-1.164a11.382,11.382,0,0,0-.1-1.619,5.873,5.873,0,0,0-.426-1.475,3.777,3.777,0,0,0-.843-1.25,3.927,3.927,0,0,0-1.418-.825,6.222,6.222,0,0,0-2.093-.321Z" transform="translate(-1022.406 -225.37)" fill="#fff"/>
  </g>
  <path id="Path_12" data-name="Path 12" d="M847.28,196.621a30.489,30.489,0,0,0-11-11.1,30.831,30.831,0,0,0-34.1,1.915,30.435,30.435,0,0,0-6.658,6.874,29.779,29.779,0,0,0-5.145,13.112c-.076.562-.136,1.117-.177,1.652-.064.793-.1,1.6-.1,2.4a30,30,0,0,0,10.646,22.891c.666.564,1.347,1.1,2.026,1.579a30.689,30.689,0,0,0,17.892,5.71,31.342,31.342,0,0,0,3.91-.245,30.59,30.59,0,0,0,22.308-14.419,29.868,29.868,0,0,0,4.342-15.1c0-.139,0-.28,0-.419a29.88,29.88,0,0,0-3.951-14.846ZM812.295,235.98l-.006,0a21.364,21.364,0,0,1-7.412-19.227,21.147,21.147,0,0,1,.672-3.136,21.952,21.952,0,0,1,20.993-15.531,1.024,1.024,0,0,0,.436-1.948,24.086,24.086,0,0,0-29.6,7.285,23.379,23.379,0,0,0-2.74,4.712c.005-.043.01-.086.017-.13a25.331,25.331,0,0,1,.806-3.765,26.4,26.4,0,0,1,48.071-5.466,25.549,25.549,0,0,1,3.378,12.7c0,.117,0,.233,0,.352a25.555,25.555,0,0,1-3.712,12.921,26.113,26.113,0,0,1-19.164,12.377,26.8,26.8,0,0,1-3.366.211,26.5,26.5,0,0,1-8.367-1.342l0-.005Z" transform="translate(-790.1 -181.288)" fill="#fff"/>
</svg>
